<?xml version="1.0" encoding="UTF-8"?>
<svg width="62px" height="54px" viewBox="0 0 62 54" version="1.1" xmlns="http://www.w3.org/2000/svg" xmlns:xlink="http://www.w3.org/1999/xlink">
    <!-- Generator: sketchtool 61.2 (101010) - https://sketch.com -->
    <title>AD741F6C-170E-4DF0-8A75-9A8C0DA7ADE6</title>
    <desc>Created with sketchtool.</desc>
    <g id="Page-1" stroke="none" stroke-width="1" fill="none" fill-rule="evenodd">
        <g id="Desktop" transform="translate(-855.000000, -1121.000000)">
            <rect fill="#FFFFFF" x="0" y="0" width="1024" height="1931"></rect>
            <rect id="Rectangle-Copy-27" stroke="#EEEEEE" x="809.5" y="1065.5" width="157" height="166" rx="2"></rect>
            <g id="214281" transform="translate(855.000000, 1122.000000)" fill-rule="nonzero">
                <g id="214280">
                    <path d="M46.4676393,41.4922108 L46.4676393,44.8373088 C46.4676393,46.1753965 47.531089,47.2266472 48.83607,47.2266472 L52.7513812,47.2266472 L52.7513812,41.4920895 L46.4676393,41.4920895 L46.4676393,41.4922108 Z M9.24861878,47.2267685 L13.16393,47.2267685 C14.4690337,47.2267685 15.5323607,46.1753965 15.5323607,44.8374301 L15.5323607,41.4923321 L9.24861878,41.4923321 C9.24861878,41.4924535 9.24861878,47.2267685 9.24861878,47.2267685 Z" id="Shape" fill="#1E2E37"></path>
                    <path d="M51.0682165,41.7619615 L51.0682165,49.4598979 C51.0682165,51.2072433 52.5222731,52.6241135 54.267264,52.6241135 L56.060621,52.6241135 C57.8539779,52.6241135 59.2596685,51.2073632 59.2596685,49.4598979 L59.2596685,40.8174213 C59.2596685,40.8174213 51.0682165,41.7619615 51.0682165,41.7619615 Z M3.08287293,49.4598979 C3.08287293,51.2072433 4.5369295,52.6241135 6.28192045,52.6241135 L8.07527739,52.6241135 C9.86863434,52.6241135 11.2743249,51.2073632 11.2743249,49.4598979 L11.2743249,41.7619615 L3.08287293,40.8174213 C3.08287293,40.8174213 3.08287293,49.4598979 3.08287293,49.4598979 Z" id="Shape" fill="#324D5B"></path>
                    <path d="M30.6362397,0 L30.7806527,0 C47.0929727,0 51.038674,6.98768801 51.038674,20.2400436 L10.6187845,20.2400436 C10.6187845,6.98768801 14.6126236,0 30.6362397,0 Z" id="Path" stroke="#FFFFFF" fill="#FF9B21"></path>
                    <path d="M30.8541936,2.36133843 L31.0000617,2.36133843 C45.4839487,2.36133843 48.9834254,8.54636953 48.9834254,20.2400436 L13.0165746,20.2400436 C13.0165746,8.54649222 16.564674,2.36133843 30.8541936,2.36133843 Z" id="Path" fill="#85C6DC"></path>
                    <path d="M31,36.0947445 C40.9152386,36.0947445 48.9834254,37.9044198 48.9834254,40.1427532 C48.9834254,42.3810867 40.9152386,44.190762 31,44.190762 C21.0847614,44.190762 13.0165746,42.3810867 13.0165746,40.1427532 C13.0165746,37.9042988 21.0847614,36.0947445 31,36.0947445 Z" id="Path" fill="#FF9B21"></path>
                    <path d="M10.8500369,21.4304207 L31.0484563,18.5533733 L51.1499631,21.4304207 C57.1562116,21.4304207 62,26.273347 62,32.3151343 L62,34.6646439 C62,36.3907993 61.2249447,37.7814148 58.9000246,37.7814148 L3.0999754,37.7814148 C0.82338869,37.7335675 0,36.342952 0,34.6167966 L0,32.267287 C0,26.273347 4.84378843,21.4304207 10.8500369,21.4304207 Z" id="Path" fill-opacity="0.540756119" fill="#FF9B21"></path>
                    <path d="M2.52742547,37.1067467 L59.4725745,37.1067467 C60.2950144,37.1067467 60.9723757,37.7401878 60.9723757,38.5684864 C60.9723757,40.1764619 59.6176532,41.4920895 57.9243729,41.4920895 L4.07562712,41.4920895 C2.38222398,41.4920895 1.02762431,40.1764619 1.02762431,38.5684864 C1.02762431,37.7401878 1.70498557,37.1067467 2.52742547,37.1067467 L2.52742547,37.1067467 Z" id="Path" fill="#E4E7E7"></path>
                    <path d="M51.9558452,20.2103935 C51.9558452,20.2103935 46.3439918,22.4063768 43.3928737,32.0973335 C43.3928737,32.0973335 41.7479863,37.4440807 37.9744859,37.4440807 L24.0416465,37.4440807 C20.2681461,37.4440807 18.6232586,32.0973335 18.6232586,32.0973335 C15.6721406,22.4063768 10.1086842,20.3059079 10.1086842,20.3059079 C8.17353696,19.5420349 10.1086842,18.3963467 10.1086842,18.3963467 C17.9459448,14.00438 31.0081276,14.5294669 31.0081276,14.5294669 C31.0081276,14.5294669 44.0219133,13.9566228 51.9558452,18.3963467 C51.9558452,18.3963467 53.7458012,19.3987633 51.9558452,20.2103935 Z" id="Path" fill="#AB620A"></path>
                    <path d="M20.6634112,31.1022491 C20.9053702,31.869294 22.1637042,34.7454083 23.7608298,34.7454083 L28.0197497,34.7454083 L28.0197497,16.529369 C20.6632883,16.529369 15.8720342,17.8716368 13.0165746,19.1179935 C15.2428672,20.7958282 18.5823677,24.2951208 20.6634112,31.1022491 Z M33.8275017,16.529369 L33.8275017,34.7454083 L37.65092,34.7454083 C39.2964621,34.7454083 40.5063797,31.8691723 40.7483386,31.1022491 C42.7810887,24.3911536 46.0720499,20.8437838 48.2983425,19.1179935 C45.5397156,17.8716368 40.8935877,16.5773245 33.8275017,16.529369 Z" id="Shape" stroke="#FFFFFF" fill="#FF9B21"></path>
                    <polygon id="Path" fill="#E87970" points="29.801105 14.5053646 31.8563536 14.5053646 31.8563536 37.4440807 29.801105 37.4440807 29.801105 14.5053646"></polygon>
                    <path d="M8.8250917,25.9747227 C6.39620076,25.9747227 4.45303867,27.8488272 4.45303867,30.1913984 C4.45303867,32.5339696 6.39620076,34.4080742 8.8250917,34.4080742 C11.2539826,34.4080742 13.1971447,32.5339696 13.1971447,30.1913984 C13.1971447,27.8489462 11.254106,25.9747227 8.8250917,25.9747227 Z M53.5174497,25.9747227 C51.0885588,25.9747227 49.1453967,27.8488272 49.1453967,30.1913984 C49.1453967,32.5339696 51.0885588,34.4080742 53.5174497,34.4080742 C55.9463407,34.4080742 57.8895028,32.5339696 57.8895028,30.1913984 C57.8895028,27.8489462 55.9463407,25.9747227 53.5174497,25.9747227 Z" id="Shape" fill="#A2B8BF"></path>
                    <path d="M8.98292817,28.6733952 C8.16297253,28.6733952 7.5359116,29.331218 7.5359116,30.1913984 C7.5359116,31.0515789 8.16297253,31.7094017 8.98292817,31.7094017 C9.80288381,31.7094017 10.4299447,31.0515789 10.4299447,30.1913984 C10.4299447,29.331218 9.75475198,28.6733952 8.98292817,28.6733952 Z M53.3596133,28.6733952 C52.5396576,28.6733952 51.9125967,29.331218 51.9125967,30.1913984 C51.9125967,31.0515789 52.5396576,31.7094017 53.3596133,31.7094017 C54.1795689,31.7094017 54.8066298,31.0515789 54.8066298,30.1913984 C54.8066298,29.331218 54.1795689,28.6733952 53.3596133,28.6733952 Z" id="Shape" fill="#F8E71C"></path>
                    <path d="M52.1299001,18.8907074 L51.2612123,18.8907074 C50.2959628,18.8907074 49.5238367,19.6240909 49.5238367,20.6018942 L49.5238367,21.4329711 C49.5238367,21.9218107 50.4890862,22.264048 51.6473366,22.264048 C52.8538679,22.264048 53.7708365,21.8729019 53.7708365,21.4329711 L53.7708365,20.6018942 C53.8673983,19.6728755 53.0951496,18.8907074 52.1299001,18.8907074 Z M10.141975,18.8907074 L9.27328721,18.8907074 C8.30803769,18.8907074 7.5359116,19.6240909 7.5359116,20.6018942 L7.5359116,21.4329711 C7.5359116,21.9218107 8.50116112,22.264048 9.65941152,22.264048 C10.8176619,22.264048 11.7829114,21.8729019 11.7829114,21.4329711 L11.7829114,20.6018942 C11.8794732,19.6728755 11.1072245,18.8907074 10.141975,18.8907074 Z" id="Shape" fill="#F4B459"></path>
                    <path d="M14.3867403,10.4573559 C16.7940211,9.2737515 23.7752818,6.24369543 30.7565426,6.24369543 C37.7859686,6.24369543 44.8634375,9.2737515 47.2707182,10.4573559 C45.2485144,5.10733425 40.5302833,2.36133843 30.8527507,2.36133843 L30.7082552,2.36133843 C21.1753404,2.36133843 16.4571093,5.10745446 14.3867403,10.4573559 Z" id="Path" fill="#92D2E8"></path>
                    <path d="M53.5174497,26.911775 C55.4120143,26.911775 56.9179217,28.3641643 56.9179217,30.1913984 C56.9179217,32.0186325 55.4120143,33.4710219 53.5174497,33.4710219 C51.6228852,33.4710219 50.1169777,32.0186325 50.1169777,30.1913984 C50.1169777,28.3642833 51.6228852,26.911775 53.5174497,26.911775 L53.5174497,26.911775 Z M8.8250917,26.911775 C10.7196562,26.911775 12.2255637,28.3641643 12.2255637,30.1913984 C12.2255637,32.0186325 10.7196562,33.4710219 8.8250917,33.4710219 C6.93052717,33.4710219 5.42461972,32.0186325 5.42461972,30.1913984 C5.42461972,28.3642833 6.93052717,26.911775 8.8250917,26.911775 L8.8250917,26.911775 Z M53.5174497,25.9747227 C51.0885588,25.9747227 49.1453967,27.8488272 49.1453967,30.1913984 C49.1453967,32.5339696 51.0885588,34.4080742 53.5174497,34.4080742 C55.9463407,34.4080742 57.8895028,32.5339696 57.8895028,30.1913984 C57.8895028,27.8489462 55.9463407,25.9747227 53.5174497,25.9747227 Z M8.8250917,25.9747227 C6.39620076,25.9747227 4.45303867,27.8488272 4.45303867,30.1913984 C4.45303867,32.5339696 6.39620076,34.4080742 8.8250917,34.4080742 C11.2539826,34.4080742 13.1971447,32.5339696 13.1971447,30.1913984 C13.1971447,27.8489462 11.254106,25.9747227 8.8250917,25.9747227 Z" id="Shape" fill="#CCD0D2"></path>
                </g>
            </g>
        </g>
    </g>
</svg>