<?xml version="1.0" encoding="UTF-8"?>
<svg width="48px" height="52px" viewBox="0 0 48 52" version="1.1" xmlns="http://www.w3.org/2000/svg" xmlns:xlink="http://www.w3.org/1999/xlink">
    <!-- Generator: sketchtool 61.2 (101010) - https://sketch.com -->
    <title>0D467E84-FE3E-4754-9A65-7668CE70B5F0</title>
    <desc>Created with sketchtool.</desc>
    <g id="Page-1" stroke="none" stroke-width="1" fill="none" fill-rule="evenodd">
        <g id="Desktop" transform="translate(-295.000000, -1318.000000)">
            <rect fill="#FFFFFF" x="0" y="0" width="1024" height="1931"></rect>
            <rect id="Rectangle-Copy-29" stroke="#EEEEEE" x="242.5" y="1260.5" width="157" height="166" rx="2"></rect>
            <g id="1162493" transform="translate(295.000000, 1318.000000)" fill-rule="nonzero">
                <polygon id="Path" fill="#FF9B21" points="41 51.2676056 0 51.2676056 4.16208194 12.8169014 36.8366854 12.8169014 37.5314614 19.2339612"></polygon>
                <polygon id="Path" fill="#ED3618" points="19.8429899 24.6478873 42.15701 24.6478873 45 51.2676056 17 51.2676056"></polygon>
                <polygon id="Path" fill="#FFE14D" points="21.8426272 24.6478873 44.156969 24.6478873 47 51.2676056 19 51.2676056"></polygon>
                <path d="M36,19.7183099 C33.3188514,18.8880907 31.314567,16.5908119 31,13.8028169 L35.3644768,13.8028169 L36,19.7183099 Z" id="Path" fill="#ED3618"></path>
                <path d="M48,12.3237523 C48,16.4074682 44.6421619,19.7183099 40.5,19.7183099 C36.3578381,19.7183099 33,16.4074682 33,12.3237523 C33,8.24003635 36.3578381,4.92957746 40.5,4.92957746 C44.6421619,4.92957746 48,8.24003635 48,12.3237523 Z" id="Path" fill="#32CC77"></path>
                <path d="M39.3570545,17.7464789 C39.124121,17.7464789 38.908755,17.5795907 38.7952161,17.3094728 L37.0810723,13.2297454 C36.9086494,12.819407 37.0202363,12.3019677 37.3305975,12.0740018 C37.641284,11.8460361 38.0326515,11.9939988 38.2050744,12.4043372 L39.3193167,15.0560525 L41.7787829,8.3659017 C41.9339635,7.94394996 42.318499,7.76759901 42.6379694,7.9731984 C42.9574398,8.17836758 43.0904982,8.68677436 42.9349922,9.1091562 L39.9351592,17.2681808 C39.8304041,17.5533532 39.6143875,17.7374463 39.3746221,17.7460488 C39.3687663,17.7464789 39.3629104,17.7464789 39.3570545,17.7464789 L39.3570545,17.7464789 Z" id="Path" fill="#E5E5E5"></path>
                <g id="Group" transform="translate(11.000000, 0.000000)" fill="#3C3F4D">
                    <path d="M17.8667504,17.3586597 C17.434222,17.3586597 17.08408,17.0178257 17.08408,16.5976562 L17.08408,9.02382265 C17.08408,4.88721386 13.6230605,1.52200704 9.36867622,1.52200704 C5.11429196,1.52200704 1.65327256,4.88721386 1.65327256,9.02382265 L1.65327256,16.5976562 C1.65327256,17.0178257 1.30273435,17.3586597 0.870602105,17.3586597 C0.438469759,17.3586597 0.0879316503,17.0178257 0.0879316503,16.5976562 L0.0879316503,9.02382265 C0.0879316503,4.04803039 4.25121556,0 9.36867622,0 C14.4861369,0 18.6494209,4.04803039 18.6494209,9.02382265 L18.6494209,16.5976562 C18.6494209,17.0178257 18.2988828,17.3586597 17.8667504,17.3586597 Z" id="Path"></path>
                    <path d="M23.0448126,40.3316461 C19.8147126,40.3316461 17.1870629,37.7767385 17.1870629,34.6360586 L17.1870629,29.7010893 C17.1870629,29.2809199 17.537205,28.9400858 17.9693373,28.9400858 C18.4018657,28.9400858 18.7520078,29.2809199 18.7520078,29.7010893 L18.7520078,34.6360586 C18.7520078,36.9371699 20.677789,38.8096391 23.0448126,38.8096391 C25.4118362,38.8096391 27.3372213,36.9371699 27.3372213,34.6360586 L27.3372213,29.7010893 C27.3372213,29.2809199 27.6877595,28.9400858 28.1198918,28.9400858 C28.5524203,28.9400858 28.9025622,29.2809199 28.9025622,29.7010893 L28.9025622,34.6360586 C28.9025622,37.7767385 26.2749126,40.3316461 23.0448126,40.3316461 L23.0448126,40.3316461 Z" id="Path"></path>
                </g>
            </g>
        </g>
    </g>
</svg>