<?xml version="1.0" encoding="UTF-8"?>
<svg width="53px" height="53px" viewBox="0 0 53 53" version="1.1" xmlns="http://www.w3.org/2000/svg" xmlns:xlink="http://www.w3.org/1999/xlink">
    <!-- Generator: sketchtool 61.2 (101010) - https://sketch.com -->
    <title>35CB4920-71AC-40B0-948B-9CB3CC65FD17</title>
    <desc>Created with sketchtool.</desc>
    <g id="Page-1" stroke="none" stroke-width="1" fill="none" fill-rule="evenodd">
        <g id="Desktop" transform="translate(-293.000000, -1122.000000)">
            <rect fill="#FFFFFF" x="0" y="0" width="1024" height="1931"></rect>
            <rect id="Rectangle-Copy-11" stroke="#EEEEEE" x="245.5" y="1065.5" width="157" height="166" rx="2"></rect>
            <g id="cat-(3)" transform="translate(319.500000, 1148.500000) scale(-1, 1) translate(-319.500000, -1148.500000) translate(293.000000, 1122.000000)" fill-rule="nonzero">
                <g id="Group" transform="translate(11.173077, 15.288462)" fill="#FAB400">
                    <path d="M32.5195284,0.766894325 C32.4459173,0.327433403 32.0366071,0.0329492706 31.6058608,0.107085129 L29.6438415,0.44811008 C29.2126908,0.523069723 28.9226954,0.93946605 28.9963065,1.37851513 C29.0618285,1.77184708 29.397123,2.04944463 29.7756945,2.04944463 C29.8201847,2.04944463 29.8646749,2.04573786 29.9099741,2.03791238 L31.8719932,1.69729927 C32.3031441,1.62233974 32.5931395,1.2059433 32.5195284,0.766894325 L32.5195284,0.766894325 Z" id="Path"></path>
                    <path d="M31.5933226,4.53505525 L29.7045101,3.49015143 C29.3198718,3.27762874 28.8389729,3.42260553 28.6302732,3.81387807 C28.4215736,4.2051506 28.5639423,4.69485921 28.9481761,4.90779385 L30.8373932,5.95228573 C30.9575168,6.01900805 31.0869429,6.05030975 31.2147512,6.05030975 C31.4958486,6.05030975 31.7676435,5.89791943 31.9112256,5.62855909 C32.1203297,5.23728656 31.9779609,4.74757805 31.5933226,4.53505525 Z" id="Path"></path>
                    <path d="M2.72442002,2.03791238 C2.76931474,2.04573786 2.81420945,2.04944463 2.8582952,2.04944463 C3.23727106,2.04944463 3.5725656,1.77184708 3.63808763,1.37851513 C3.71169869,0.93946605 3.4217033,0.523069723 2.99055245,0.44811008 L1.02893773,0.107085129 C0.597786987,0.032537431 0.188476749,0.327433403 0.11486569,0.766894325 C0.0412546305,1.2059433 0.331250026,1.62233974 0.762400768,1.69729927 L2.72442002,2.03791238 Z" id="Path"></path>
                    <path d="M2.929884,3.49015143 L1.04107148,4.53505525 C0.656433176,4.74757805 0.514468864,5.23728656 0.723168498,5.62897104 C0.866346206,5.89791943 1.13854551,6.05030975 1.41964291,6.05030975 C1.54745111,6.05030975 1.67687724,6.01900805 1.79700094,5.95269757 L3.6862179,4.90779385 C4.07045177,4.69485921 4.21282051,4.20556255 4.00412088,3.81387807 C3.79501681,3.42260553 3.31452231,3.27762874 2.929884,3.49015143 Z" id="Path"></path>
                </g>
                <path d="M45.191599,17.2320528 C45.3263309,19.9877797 48.7442685,24.2674054 48.3467698,29.7271257 C47.991424,34.611667 45.7648007,40.5439142 41.2067628,43.5448661 C41.2248846,43.8145323 41.2347334,44.0646456 41.2347334,44.2915399 C41.2347334,47.2639773 39.7235292,49.0082527 36.6538462,49.9423077 C36.6566038,49.9414929 52.9575975,46.2712639 52.9615385,28.279809 C52.9654766,9.92744148 45.0139261,13.6102984 45.191599,17.2320528 L45.191599,17.2320528 Z" id="Path" fill="#FAB400"></path>
                <path d="M43.5096014,41.7884615 C42.7887673,42.5760203 41.9758711,43.2784377 41.0682389,43.8639789 C41.086193,44.1201775 41.0957429,44.3577996 41.0957429,44.5733623 C41.0957429,47.397738 39.6303907,49.0549011 36.6538462,49.9423077 C36.6538462,49.9423077 39.8351428,49.2402773 43.3434315,46.9236547 C43.6406275,46.2494888 43.7884615,45.4704441 43.7884615,44.5733623 C43.7884615,43.8554648 43.6849395,42.897236 43.5096014,41.7884615 L43.5096014,41.7884615 Z" id="Path" fill="#FBAC00"></path>
                <path d="M31.2950893,5.24467814 C31.2950893,5.24467814 33.430859,-0.369124641 35.260906,0.0192617384 C37.1166898,0.41284791 36.7563737,6.74582538 36.7563737,6.74582538 C36.7563737,6.74582538 40.5896065,12.7808133 40.4656016,16.2522914 C40.3415967,19.7233695 38.1660519,22.0388881 36.0131243,22.4612733 C36.0131243,22.4612733 40.7307692,38.5255088 40.7307692,43.4973342 C40.7307692,48.4687595 36.3929381,49.9423077 27.4809642,49.9423077 C18.5686005,49.9423077 14.2307692,48.4687595 14.2307692,43.4973342 C14.2307692,38.5255088 18.9484143,22.4612733 18.9484143,22.4612733 C16.7958766,22.0388881 14.6199418,19.7233695 14.4959369,16.2522914 C14.3719321,12.7808133 18.2051648,6.74582538 18.2051648,6.74582538 C18.2051648,6.74582538 17.8448487,0.41284791 19.7006326,0.0192617384 C21.5302895,-0.369124641 23.6664491,5.24467814 23.6664491,5.24467814 L31.2950893,5.24467814 Z" id="Path" fill="#FEC97F"></path>
                <path d="M27.4809642,47.0726456 C19.3672232,47.0726456 15.0457699,45.828949 14.3360564,41.7884615 C14.2685947,42.3950435 14.2307692,42.9340465 14.2307692,43.382673 C14.2307692,48.4425439 18.5682106,49.9423077 27.4805743,49.9423077 C36.3929381,49.9423077 40.7307692,48.4421368 40.7307692,43.382673 C40.7307692,42.9340465 40.6929439,42.3950435 40.6254821,41.7884615 C39.9157686,45.828949 35.5943154,47.0726456 27.4809642,47.0726456 L27.4809642,47.0726456 Z" id="Path" fill="#FBAC00"></path>
                <path d="M20.3428492,0.0199358113 C18.5279722,0.427295701 18.8803459,6.98189845 18.8803459,6.98189845 C18.8803459,6.98189845 15.1316087,13.2280834 15.2528801,16.8210473 C15.3169481,18.7208182 15.9423732,20.2856763 16.8286464,21.4038462 C27.3685852,18.8450133 26.4407442,5.42821792 26.4407442,5.42821792 L24.2212476,5.42821792 C24.2212476,5.42821792 22.1321752,-0.382042317 20.3428492,0.0199358113 Z" id="Path" fill="#FBAC00"></path>
                <path d="M35.6380829,0.0199358113 C37.4525204,0.427295701 37.1005393,6.98189845 37.1005393,6.98189845 C37.1005393,6.98189845 40.8491568,13.2280834 40.7278892,16.8210473 C40.6638233,18.7208182 40.0384181,20.2856763 39.1521734,21.4038462 C28.6125713,18.8450133 29.5400013,5.42821792 29.5400013,5.42821792 L31.7598082,5.42821792 C31.7598082,5.42821792 33.8484326,-0.382042317 35.6380829,0.0199358113 Z" id="Path" fill="#FBAC00"></path>
                <path d="M21.365641,12.2307692 C20.2224204,12.2307692 19.3269231,13.1261065 19.3269231,14.2692308 C19.3269231,15.4123551 20.2224204,16.3076923 21.365641,16.3076923 C22.5083489,16.3076923 23.4038462,15.4123551 23.4038462,14.2692308 C23.4038462,13.1261065 22.5083489,12.2307692 21.365641,12.2307692 Z" id="Path" fill="#433F43"></path>
                <path d="M34.6151283,12.2307692 C33.4724203,12.2307692 32.5769231,13.1261065 32.5769231,14.2692308 C32.5769231,15.4123551 33.4724203,16.3076923 34.6151283,16.3076923 C35.758349,16.3076923 36.6538462,15.4123551 36.6538462,14.2692308 C36.6538462,13.1261065 35.758349,12.2307692 34.6151283,12.2307692 Z" id="Path" fill="#433F43"></path>
                <path d="M30.5384615,15.4446686 C30.5384615,15.1923397 30.4270586,14.5822368 29.3968993,14.3691263 C29.0584547,14.2991994 28.6378346,14.2692308 27.9905964,14.2692308 C27.3425111,14.2692308 26.9223145,14.2991994 26.5842935,14.3691263 C25.5537106,14.5822368 25.4423077,15.1923397 25.4423077,15.4446686 C25.4423077,16.133578 26.1924771,16.7740196 27.1612165,17.0167288 L27.1612165,18.6409568 C27.1612165,19.040909 27.5322772,19.3653846 27.9905964,19.3653846 C28.448492,19.3653846 28.8199763,19.040909 28.8199763,18.6409568 L28.8199763,17.0167288 C29.7882921,16.7740196 30.5384615,16.133578 30.5384615,15.4446686 Z" id="Path" fill="#DD8858"></path>
                <path d="M19.3269231,30.5769231 C19.3269231,30.5769231 20.144449,51.9807692 23.2659502,51.9807692 C26.3874514,51.9807692 26.4615385,32.6848521 26.4615385,32.6848521" id="Path" fill="#FDCF86"></path>
                <path d="M36.6538462,30.5769231 C36.6538462,30.5769231 35.8363694,51.9807692 32.7150555,51.9807692 C29.5937415,51.9807692 29.5192308,32.6848521 29.5192308,32.6848521" id="Path" fill="#FDCF86"></path>
                <path d="M22.7286618,53 C21.3135787,53 20.6276338,51.0312255 20.1885659,49.3162461 C19.7574232,47.6342169 19.3750218,45.3010289 19.0516648,42.3817982 C18.504811,37.4447599 18.310242,32.4433903 18.3082607,32.3931805 C18.2920136,31.969535 18.62607,31.6129668 19.0544387,31.5968839 C19.4824112,31.5784476 19.8430177,31.9114799 19.8592648,32.3355176 C19.8608499,32.3818048 20.041153,37.0120923 20.5416431,41.7278936 C20.8336947,44.480412 21.1756764,46.7194565 21.5580778,48.3826571 C22.1104793,50.7860604 22.5982887,51.3332691 22.7381723,51.4454566 C22.9485922,51.2909045 23.9654231,50.1705978 24.5523001,42.7819077 C24.889923,38.531332 24.9097365,34.3599935 24.9097365,34.3180213 C24.9113216,33.8947681 25.2584548,33.5531059 25.6856348,33.5531059 L25.688805,33.5531059 C26.1171737,33.554675 26.4631181,33.8998676 26.4615385,34.3239052 C26.4615385,34.3690156 26.4401345,38.8839776 26.0636771,43.3404921 C25.8405766,45.9796462 25.5374295,48.0908125 25.1629536,49.6147592 C24.8059135,51.0680984 24.1651436,53 22.7286618,53 Z" id="Path" fill="#FDA400"></path>
                <path d="M32.2331039,53 C30.7966872,53 30.1559462,51.0680932 29.7985262,49.6151424 C29.4240672,48.0907992 29.1213299,45.9800194 28.8982396,43.3404659 C28.5217994,38.8839393 28.5004018,34.3689652 28.5,34.3238546 C28.4984205,33.8998158 28.8443493,33.5546223 29.2730948,33.5530532 L29.2758686,33.5530532 C29.7030293,33.5530532 30.0501467,33.8947164 30.0517318,34.3183629 C30.052128,34.359943 30.0719406,38.5387458 30.4099444,42.789333 C30.9967949,50.1713746 32.0131835,51.2908999 32.2235938,51.4458448 C32.363471,51.3332646 32.8512583,50.7864466 33.4036348,48.3826446 C33.7860189,46.7198319 34.1279851,44.4807812 34.4200235,41.727863 C34.9204908,37.012049 35.1007859,32.381749 35.1023709,32.3354616 C35.1186173,31.9114228 35.4819812,31.579174 35.9071605,31.5968259 C36.3351136,31.6129089 36.6691547,31.9694781 36.6533046,32.3935169 C36.6513234,32.4433346 36.4567632,37.4447177 35.9099343,42.3821616 C35.586592,45.301008 35.2042079,47.6342023 34.7730848,49.3166284 C34.3340366,51.0312202 33.6481228,53 32.2331039,53 Z" id="Path" fill="#FDA400"></path>
                <path d="M0.423352364,33.3287964 C1.28708856,31.1203801 3.40506683,29.5576923 5.87137826,29.5576923 L6.70186259,29.5576923 C8.26348124,29.5576923 9.75008068,30.186417 10.8542842,31.3157161 L11.6267806,32.1057692 L12.399277,31.3157161 C13.5034806,30.186417 14.99008,29.5576923 16.5516987,29.5576923 C19.7905065,29.5576923 22.4230769,32.2500939 22.4230769,35.562511 L22.4230769,35.6902466 C22.4230769,37.2102176 21.8667173,38.6712975 20.853348,39.7752983 L11.6267806,49.9423077 L1.71895661,39.8093059 C0.614753049,38.6800068 0,37.159621 0,35.562511 C0,34.7728726 0.149633137,34.0168269 0.423352364,33.3287964 L0.423352364,33.3287964 Z" id="Path" fill="#EF7385"></path>
                <path d="M17.0615505,31.5961538 L17.0186408,31.5961538 L17.0480887,33.2869757 C17.6925743,33.2972956 18.2360963,33.663035 18.5023883,34.2677845 C18.7295569,34.7817184 18.7674183,35.5528256 18.1957107,36.1699591 L11.2115385,43.7084818 L12.4870481,44.8461538 L19.4707996,37.3076312 C20.4106045,36.2925602 20.6449247,34.87047 20.0833134,33.5957488 C19.5490466,32.3841858 18.3963763,31.6163809 17.0615505,31.5961538 L17.0615505,31.5961538 Z" id="Path" fill="#000000"></path>
            </g>
        </g>
    </g>
</svg>