<?xml version="1.0" encoding="UTF-8"?>
<svg width="104px" height="140px" viewBox="0 0 104 140" version="1.1" xmlns="http://www.w3.org/2000/svg" xmlns:xlink="http://www.w3.org/1999/xlink">
    <!-- Generator: sketchtool 61.2 (101010) - https://sketch.com -->
    <title>F2296AD0-D2E8-4B95-AC6E-E261DD497263</title>
    <desc>Created with sketchtool.</desc>
    <g id="Latest-Designs" stroke="none" stroke-width="1" fill="none" fill-rule="evenodd">
        <g id="Main-Applicant-Signed--Option-2" transform="translate(-129.000000, -276.000000)">
            <rect fill="#FFFFFF" x="0" y="0" width="375" height="667"></rect>
            <g id="contract" transform="translate(129.000000, 276.000000)" fill-rule="nonzero">
                <rect id="Rectangle" fill="#F0F7FF" x="0" y="0" width="104" height="140"></rect>
                <rect id="Rectangle" fill="#DFE7F4" x="51.0545455" y="0" width="52.9454545" height="140"></rect>
                <path d="M83.4955174,51.254978 L18.9090909,51.254978 L18.9090909,43.0712309 L83.4955174,43.0712309 L83.4955174,51.254978 Z M65.8809874,22.7027027 L36.5233457,22.7027027 L36.5233457,30.8864498 L65.8809874,30.8864498 L65.8809874,22.7027027 Z M86.9818182,60.5298914 L18.9090909,60.5298914 L18.9090909,68.7136385 L86.9818182,68.7136385 L86.9818182,60.5298914 L86.9818182,60.5298914 Z M83.4955174,77.9885519 L18.9090909,77.9885519 L18.9090909,86.172299 L83.4955174,86.172299 L83.4955174,77.9885519 Z M63.2259047,115.269885 L68.3979711,115.269885 L68.3979711,107.086138 L60.7260176,107.086138 L54.7698294,111.021701 L48.2907099,98.1781288 L40.1459163,107.085865 L32.6181818,107.085865 L32.6181818,115.269612 L43.8058854,115.269612 L46.3032955,112.53815 L51.5672877,122.972973 L63.2259047,115.269885 Z" id="Shape" fill="#BFC8DA"></path>
                <g id="Group" transform="translate(50.581818, 22.702703)" fill="#A1A8B8">
                    <rect id="Rectangle" x="0.628476617" y="0" width="14.3709091" height="8.17420682"></rect>
                    <rect id="Rectangle" x="0.628476617" y="20.3456008" width="31.616" height="8.17420682"></rect>
                    <rect id="Rectangle" x="0.628476617" y="55.2222165" width="31.616" height="8.17420682"></rect>
                    <polygon id="Path" points="4.15299455 88.21604 0.472727273 80.8682454 0.472727273 99.1460444 0.977385697 100.153924 12.5386762 92.4592707 17.6676871 92.4592707 17.6676871 84.2850639 10.0595997 84.2850639"></polygon>
                    <rect id="Rectangle" x="0.628476617" y="37.7839086" width="35.2087273" height="8.17420682"></rect>
                </g>
                <g id="Group-4" transform="translate(79.632093, 81.780570) scale(-1, 1) rotate(-22.000000) translate(-79.632093, -81.780570) translate(73.013911, 46.780570)">
                    <polygon id="Path" fill="#61729B" points="6.42291856 25.7539985 1.00625189 28.4601841 1.00625189 33.8725552 6.42291856 36.5787408 11.8395852 33.8725552 11.8395852 28.4601841"></polygon>
                    <polygon id="Path" fill="#47568C" points="11.2564386 28.466919 5.47866084 25.7607334 5.47866084 36.5854757 11.2564386 33.8792901"></polygon>
                    <path d="M6.21303144,0.636329928 C3.22700366,0.636329928 0.796364775,3.08112545 0.796364775,6.08454458 L0.796364775,28.0590103 L6.21303144,28.0590103 L11.6296981,28.0590103 L11.6296981,6.08454458 C11.6296981,3.08112545 9.19905922,0.636329928 6.21303144,0.636329928 Z" id="Path" fill="#FFD396"></path>
                    <path d="M11.7161843,6.36161412 C11.7161843,3.35819499 9.1235028,0.91339947 5.9384065,0.91339947 L5.9384065,28.3360799 L11.7161843,28.3360799 L11.7161843,6.36161412 Z" id="Path" fill="#FF9100"></path>
                    <path d="M6.08496703,33.5859494 L0.668300366,33.5859494 L0.668300366,45.9033033 C0.668300366,53.8589449 2.54084203,61.8278241 6.08496703,68.9467741 C9.62909203,61.8278241 11.5016337,53.8589449 11.5016337,45.9033033 L11.5016337,33.5859494 L6.08496703,33.5859494 Z" id="Path" fill="#FFD396"></path>
                    <path d="M11.8586691,33.1939172 L6.0808913,33.1939172 L6.0808913,68.5547419 C9.8612913,61.4357919 11.8586691,53.4669127 11.8586691,45.5112711 L11.8586691,33.1939172 Z" id="Path" fill="#FF9100"></path>
                </g>
            </g>
        </g>
    </g>
</svg>