<?xml version="1.0" encoding="UTF-8"?>
<svg width="166px" height="167px" viewBox="0 0 166 167" version="1.1" xmlns="http://www.w3.org/2000/svg" xmlns:xlink="http://www.w3.org/1999/xlink">
    <!-- Generator: sketchtool 61.2 (101010) - https://sketch.com -->
    <title>1B62D5BE-3FC8-43AF-896E-446C11DBEA8E</title>
    <desc>Created with sketchtool.</desc>
    <g id="Latest-Designs" stroke="none" stroke-width="1" fill="none" fill-rule="evenodd">
        <g id="Denied" transform="translate(-104.000000, -250.000000)">
            <rect fill="#FFFFFF" x="0" y="0" width="375" height="667"></rect>
            <g id="cry" transform="translate(103.500000, 250.000000)" fill-rule="nonzero">
                <path d="M142.190078,24.8099219 C126.513129,9.13362109 105.670078,0.5 83.5,0.5 C61.3299219,0.5 40.4868711,9.13362109 24.8099219,24.8099219 C9.13362109,40.4868711 0.5,61.3299219 0.5,83.5 C0.5,105.670078 9.13362109,126.513129 24.8099219,142.190078 C40.4868711,157.866379 61.3299219,166.5 83.5,166.5 C105.670078,166.5 126.513129,157.866379 142.190078,142.190078 C157.866379,126.513129 166.5,105.670078 166.5,83.5 C166.5,61.3299219 157.866379,40.4868711 142.190078,24.8099219 Z" id="Path" fill="#FFDA2D"></path>
                <path d="M142.190078,24.8099219 C126.513129,9.13362109 105.670078,0.5 83.5,0.5 L83.5,166.5 C105.670078,166.5 126.513129,157.866379 142.190078,142.190078 C157.866379,126.513129 166.5,105.670078 166.5,83.5 C166.5,61.3299219 157.866379,40.4868711 142.190078,24.8099219 Z" id="Path" fill="#FDBF00"></path>
                <g id="Group" transform="translate(38.500000, 56.500000)">
                    <path d="M70.732554,18.9855085 C60.2161511,18.9855085 51.6603237,10.4747966 51.6603237,0.0135254237 L61.372554,0.0135254237 C61.372554,5.14738983 65.5714748,9.32449153 70.732554,9.32449153 C75.8936331,9.32449153 80.0928777,5.14771186 80.0928777,0.0135254237 L89.8051079,0.0135254237 C89.8051079,10.4744746 81.2492806,18.9855085 70.732554,18.9855085 Z" id="Path" fill="#292929"></path>
                    <path d="M19.267446,18.9855085 C8.75104317,18.9855085 0.194892086,10.4747966 0.194892086,0.0135254237 L9.9071223,0.0135254237 C9.9071223,5.14738983 14.1063669,9.32449153 19.267446,9.32449153 C24.4285252,9.32449153 28.627446,5.14771186 28.627446,0.0135254237 L38.3396763,0.0135254237 C38.3396763,10.4744746 29.7838489,18.9855085 19.267446,18.9855085 Z" id="Path" fill="#444444"></path>
                </g>
                <path d="M48.2544879,116.5 L41.5,109.553916 C51.5873607,99.9870792 66.9791025,94.5 83.7283081,94.5 C98.0691206,94.5 111.483503,98.5303212 121.5,105.84846 L115.700223,113.590336 C107.471248,107.5784 95.8180581,104.130397 83.7283081,104.130397 C69.682653,104.130397 56.4213753,108.754593 48.2544879,116.5 Z" id="Path" fill="#444444"></path>
                <path d="M83.5,94.5 C97.9274944,94.5 111.422959,98.5112496 121.5,105.794759 L115.665166,113.5 C107.386452,107.516513 95.6628255,104.084826 83.5,104.084826 L83.5,94.5 Z" id="Path" fill="#292929"></path>
                <path d="M144.700643,96.1707967 C140.523099,87.2788936 136.415143,79.6669225 136.242461,79.3473459 L132.000161,71.5 L127.757861,79.3473459 C127.58518,79.6669225 123.477224,87.2788936 119.299679,96.1707967 C111.412056,112.959136 110.5,118.840257 110.5,121.803899 C110.5,133.767054 120.145046,143.5 132.000161,143.5 C143.855276,143.5 153.5,133.767054 153.5,121.803899 C153.5,118.840582 152.587944,112.959136 144.700643,96.1707967 Z" id="Path" fill="#B2DCFD"></path>
            </g>
        </g>
    </g>
</svg>