<?xml version="1.0" encoding="UTF-8"?>
<svg width="120px" height="173px" viewBox="0 0 120 173" version="1.1" xmlns="http://www.w3.org/2000/svg" xmlns:xlink="http://www.w3.org/1999/xlink">
    <!-- Generator: sketchtool 61.2 (101010) - https://sketch.com -->
    <title>B5CF16E3-9EBF-41EF-876F-5B66FA9C825F</title>
    <desc>Created with sketchtool.</desc>
    <defs>
        <rect id="path-1" x="0.761578045" y="0" width="24.3704974" height="56.2444113"></rect>
        <rect id="path-3" x="0.761578045" y="0" width="4.56946827" height="7.60059613"></rect>
        <rect id="path-5" x="0" y="0" width="51.6455696" height="13.7165775"></rect>
        <rect id="path-7" x="0" y="0" width="7.59493671" height="15.2406417"></rect>
    </defs>
    <g id="Latest-Designs" stroke="none" stroke-width="1" fill="none" fill-rule="evenodd">
        <g id="Everyone-Signed" transform="translate(-127.000000, -280.000000)">
            <rect fill="#FFFFFF" x="0" y="0" width="375" height="667"></rect>
            <g id="Group-3" transform="translate(127.000000, 276.000000)">
                <g id="air" transform="translate(13.090909, 0.000000)">
                    <path d="M23.4815486,92.3509429 C22.9835592,91.8415594 22.9828318,91.0163895 23.4799239,90.5078824 C25.3436883,88.6013201 25.3409517,85.4967541 23.4738231,83.5869059 C20.6127071,80.6596498 20.6085133,75.9020297 23.4644729,72.9798086 C25.3282373,71.0732461 25.3255007,67.9686802 23.4583715,66.0581534 C22.9603827,65.5494487 22.9596553,64.7242788 23.4567474,64.2157716 C23.9538403,63.7079432 24.7605198,63.7086536 25.2578452,64.2173578 C28.1196246,67.1446145 28.1238185,71.9022345 25.2671953,74.8244551 C23.4034311,76.7310176 23.4061677,79.8355836 25.2732962,81.7454318 C28.1350756,84.6726883 28.1392701,89.4309869 25.2826463,92.3525291 C24.786217,92.8603581 23.9795375,92.8596476 23.4815486,92.3509429 L23.4815486,92.3509429 Z" id="Path" fill="#BDBDBD" fill-rule="nonzero" transform="translate(24.373809, 78.284151) rotate(-31.000000) translate(-24.373809, -78.284151) "></path>
                    <path d="M30.1122814,46.6152415 C25.2070457,41.3621841 21.7741955,32.6552567 22.0939251,25.001926 C22.1170053,24.432726 21.768086,23.914408 21.2311304,23.7217349 C19.5265847,23.1111509 17.7188569,22.8017884 15.8575011,22.8017884 C7.04219686,22.8017884 0,29.7000303 0,40.0046524 C0,50.170197 7.31983885,62.3248882 15.8575011,62.3248882 C22.6390267,62.3248882 28.1497798,54.8506621 30.4001059,47.9056088 C30.5453757,47.4551335 30.4354051,46.961239 30.1122814,46.6152415 Z" id="Path" fill="#FFCA28" fill-rule="nonzero"></path>
                    <path d="M38.5913334,90.0957082 C38.0585874,89.5788146 38.0585874,88.7407579 38.5913334,88.2238643 C40.4545238,86.4161155 40.4545238,83.4911874 38.5913334,81.6834384 C35.6811195,78.8598215 35.669044,74.2732529 38.5543965,71.4351628 C36.5775535,71.2297839 35.0325901,69.6012247 35.0325901,67.6301374 C35.0325901,65.5198336 36.8027275,63.8023687 38.9777518,63.8023687 C39.9089919,63.8023687 40.7663579,64.1173291 41.4418798,64.6431822 C41.424832,63.2482589 40.8565696,61.9394844 39.8386695,60.9511841 C38.2887337,59.4480576 37.4356298,57.4494027 37.4356298,55.3232474 C37.4356298,54.5920154 38.0465119,54 38.7994596,54 C39.5524073,54 40.1632894,54.5920154 40.1632894,55.3232474 C40.1632894,56.7422925 40.7329724,58.0765669 41.76721,59.0800295 C44.6063912,61.8347273 44.9153838,66.0767002 42.7772965,69.1491152 C42.4725657,70.7004849 41.6975979,72.1284894 40.519874,73.2704795 C38.6609456,75.0740932 38.6609456,78.0086701 40.519874,79.8115947 C43.4421636,82.646928 43.4421636,87.2603749 40.519874,90.0957082 C39.9871281,90.6119125 39.1233692,90.6119125 38.5913334,90.0957082 L38.5913334,90.0957082 Z M38.9777518,66.4488635 C38.2276454,66.4488635 37.6345216,67.1104872 37.7836904,67.8637733 C37.8788745,68.3406937 38.2844716,68.7197491 38.7795704,68.79556 C39.5481452,68.9127227 40.1959644,68.3344911 40.1945462,67.6370294 C40.1945462,67.6356509 40.1945462,67.6335835 40.1945462,67.632205 C40.1945462,66.9788516 39.6490119,66.4488635 38.9777518,66.4488635 L38.9777518,66.4488635 Z" id="Shape" fill="#BDBDBD" fill-rule="nonzero"></path>
                    <path d="M56.0653978,87.5155784 C55.5674085,87.0061949 55.5666811,86.181025 56.0637732,85.6725178 C57.9275376,83.7659555 57.9248009,80.6613896 56.0576723,78.7515414 C53.1965564,75.8242853 53.1923626,71.0666652 56.0483222,68.1444441 C57.9120866,66.2378816 57.9093499,63.1333156 56.0422207,61.2227889 C55.544232,60.7140841 55.5435046,59.8889143 56.0405967,59.3804071 C56.5376895,58.8725787 57.344369,58.8732891 57.8416944,59.3819933 C60.7034739,62.30925 60.7076677,67.0668699 57.8510446,69.9890906 C55.9872803,71.8956531 55.990017,75.0002191 57.8571454,76.9100672 C60.7189249,79.8373238 60.7231193,84.5956224 57.8664956,87.5171645 C57.3700663,88.0249936 56.5633868,88.0242831 56.0653978,87.5155784 L56.0653978,87.5155784 Z" id="Path" fill="#BDBDBD" fill-rule="nonzero" transform="translate(56.957658, 73.448786) scale(-1, 1) rotate(-31.000000) translate(-56.957658, -73.448786) "></path>
                    <path d="M63.3570271,15.2011923 C60.6927914,15.2011923 58.1679911,15.7570306 55.8513236,16.8540273 C55.2636546,17.1316128 54.9759416,17.7922129 55.1759122,18.4007658 C55.8676478,20.506012 56.2186166,22.7960927 56.2186166,25.2076169 C56.2186166,31.7662427 53.4027026,39.3184377 49.0434768,44.4484319 C48.7203949,44.8287776 48.6496569,45.3585922 48.862551,45.8083343 C52.3538765,53.1830347 57.907485,57.7645306 63.356347,57.7645306 C72.7005568,57.7645306 80.7272727,44.653952 80.7272727,33.7100087 C80.7272727,22.6593018 73.0528863,15.2011923 63.3570271,15.2011923 L63.3570271,15.2011923 Z" id="Path" fill="#42A5F5" fill-rule="nonzero"></path>
                    <path d="M39.6020583,4.56035768 C28.4510456,4.56035768 19.8010292,13.1711717 19.8010292,25.6884591 C19.8010292,38.2298029 28.9949477,53.2041729 39.6020583,53.2041729 C50.2282295,53.2041729 59.4030875,38.2030737 59.4030875,25.6884591 C59.4030875,13.1798587 50.7619206,4.56035768 39.6020583,4.56035768 Z" id="Path" fill="#EF5350" fill-rule="nonzero"></path>
                    <g id="Path" transform="translate(38.078902, 0.000000)">
                        <mask id="mask-2" fill="white">
                            <use xlink:href="#path-1"></use>
                        </mask>
                        <g id="Mask" opacity="0.699999988"></g>
                        <path d="M1.52315609,4.56035768 C-9.62785661,4.56035768 -18.2778731,13.1711717 -18.2778731,25.6884591 C-18.2778731,38.2298029 -9.08395453,53.2041729 1.52315609,53.2041729 C12.1493273,53.2041729 21.3241852,38.2030737 21.3241852,25.6884591 C21.3241852,13.1798587 12.6830184,4.56035768 1.52315609,4.56035768 Z" fill="#D32F2F" fill-rule="nonzero" opacity="0.699999988" mask="url(#mask-2)"></path>
                    </g>
                    <path d="M15.041841,66.8852459 C14.1716522,66.8852459 13.5350012,66.1221567 13.750689,65.3362164 L14.5613778,62.3898063 C14.8179719,61.4563724 15.720142,60.804769 16.7546999,60.804769 C17.7892578,60.804769 18.6914278,61.4563724 18.9480219,62.3898063 L19.7587108,65.3362164 C19.9743985,66.1214643 19.3384912,66.8852459 18.4675588,66.8852459 L15.041841,66.8852459 Z" id="Path" fill="#FFCA28" fill-rule="nonzero"></path>
                    <path d="M36.3811177,59.2846498 C35.5004981,59.2846498 34.856766,58.5023919 35.0756049,57.6981486 L36.1803274,53.6315423 C36.4916652,52.4854601 37.5851072,51.6840537 38.8402344,51.6840537 C40.0953617,51.6840537 41.1895559,52.4847509 41.5008935,53.6315423 L42.605616,57.6981486 C42.8237029,58.5023919 42.1799708,59.2846498 41.3001032,59.2846498 L36.3811177,59.2846498 Z" id="Path" fill="#EF5350" fill-rule="nonzero"></path>
                    <path d="M62.1497107,62.3248882 C61.3512868,62.3248882 60.7671407,61.6207389 60.9650405,60.8961423 L61.8078215,57.8175655 C62.060997,56.891053 62.9515468,56.2444113 63.97312,56.2444113 C64.9940108,56.2444113 65.8845606,56.891053 66.1377362,57.8175655 L66.9798347,60.8955034 C67.178417,61.6201 66.5942709,62.3248882 65.7951646,62.3248882 L62.1497107,62.3248882 Z" id="Path" fill="#42A5F5" fill-rule="nonzero"></path>
                    <g id="Path" transform="translate(38.078902, 51.684054)">
                        <mask id="mask-4" fill="white">
                            <use xlink:href="#path-3"></use>
                        </mask>
                        <g id="Mask"></g>
                        <path d="M-1.69778455,7.60059613 C-2.57840409,7.60059613 -3.22213619,6.81833821 -3.00329731,6.01409495 L-1.89857487,1.94748867 C-1.58723705,0.801406429 -0.49379501,0 0.761332126,0 C2.01645946,0 3.11065366,0.800697265 3.42199129,1.94748867 L4.52671373,6.01409495 C4.74480063,6.81833821 4.10106854,7.60059613 3.22120097,7.60059613 L-1.69778455,7.60059613 Z" fill="#D32F2F" fill-rule="nonzero" mask="url(#mask-4)"></path>
                    </g>
                </g>
                <g id="valentines-day" transform="translate(0.000000, 74.181818)">
                    <path d="M84.4996456,35.7515086 L72.3477468,24.3125915 C71.7381266,23.7388235 71.3924051,22.9387067 71.3924051,22.1017424 L71.3924051,12.1812657 C71.3924051,10.5040977 72.7526076,9.14438503 74.4303797,9.14438503 L86.5822785,9.14438503 C88.2600506,9.14438503 89.6202532,10.5040977 89.6202532,12.1812657 L89.6202532,33.5406595 C89.6202532,34.7523748 88.8996456,35.8480814 87.7867342,36.3287184 C87.3992911,36.4959492 86.9893671,36.5775401 86.5828861,36.5775401 C85.8231899,36.5775401 85.0746329,36.2926807 84.4996456,35.7515086 Z" id="Path" fill="#45281C" fill-rule="nonzero"></path>
                    <path d="M15.2328203,94.4919786 C13.53133,94.4919786 12.1518987,93.113487 12.1518987,91.4131559 L12.1518987,36.0991027 C12.1518987,35.1945446 12.5499538,34.3357583 13.240491,33.750782 L50.4159176,2.25463063 C51.5852301,1.26366022 53.3054113,1.28295417 54.4525411,2.29958144 L91.6216004,35.2409322 C92.2809177,35.8252928 92.6582278,36.6637588 92.6582278,37.5443021 L92.6582278,91.4131559 C92.6582278,93.113487 91.2787966,94.4919786 89.5773063,94.4919786 L15.2328203,94.4919786 Z" id="Path" fill="#F5DF87" fill-rule="nonzero"></path>
                    <path d="M91.6023943,35.2400237 L53.7446847,2.29793121 C53.1467904,1.77760169 52.3959708,1.52020792 51.6455696,1.52350962 L51.6455696,94.4919786 L89.5202245,94.4919786 C91.2532391,94.4919786 92.6582278,93.1134646 92.6582278,91.4131057 L92.6582278,37.5434311 C92.6582278,36.6626682 92.273927,35.8241885 91.6023943,35.2400237 Z" id="Path" fill="#E0CC7B" fill-rule="nonzero"></path>
                    <g id="Group" transform="translate(41.012658, 59.438503)">
                        <rect id="Rectangle" fill="#935C46" x="0" y="0" width="10.6329114" height="35.0534759"></rect>
                        <rect id="Rectangle-Copy" fill="#633A29" x="10.6329114" y="0" width="12.1518987" height="35.0534759"></rect>
                    </g>
                    <g id="Group-5" transform="translate(0.000000, 85.347594)">
                        <path d="M98.1186282,16.1065873 L4.37297507,16.1065873 C1.96944666,16.1065873 6.47583253e-13,14.1939693 6.47583253e-13,11.8669222 C6.47583253e-13,9.53293861 1.96944666,7.62032086 4.37297507,7.62032086 L98.1186282,7.62032086 C100.52305,7.62032086 102.492496,9.53293861 102.492496,11.8669222 C102.492496,14.1939693 100.52305,16.1065873 98.1186282,16.1065873 Z" id="Path" fill="#E6E6E6" fill-rule="nonzero"></path>
                        <g id="Path" transform="translate(51.645570, 4.572193)">
                            <mask id="mask-6" fill="white">
                                <use xlink:href="#path-5"></use>
                            </mask>
                            <g id="Mask"></g>
                            <path d="M46.4730586,11.5343947 L-47.2725946,11.5343947 C-49.676123,11.5343947 -51.6455696,9.62177677 -51.6455696,7.29472969 C-51.6455696,4.9607461 -49.676123,3.04812834 -47.2725946,3.04812834 L46.4730586,3.04812834 C48.8774804,3.04812834 50.8469268,4.9607461 50.8469268,7.29472969 C50.8469268,9.62177677 48.8774804,11.5343947 46.4730586,11.5343947 Z" fill="#C9C8C8" fill-rule="nonzero" mask="url(#mask-6)"></path>
                        </g>
                        <path d="M117.446759,16.9725328 C120.434096,16.9725328 120.924011,12.4611488 117.559272,11.0988811 C115.154874,10.1216579 115.062738,10.738761 114.824424,9.62058417 C114.260976,6.97254168 111.923023,4.93558615 109.148308,4.53077339 C107.41987,4.2798067 108.359836,4.62703458 107.069044,3.5217499 C104.353687,1.18827535 98.8503266,-0.103515561 93.3593689,0.00649723279 C87.8692973,-0.103515561 82.3721383,1.18827535 79.6567808,3.5217499 C78.3651036,4.62703458 79.3059551,4.2798067 77.5775171,4.53077339 C74.8019167,4.93558615 72.4639632,6.97254168 71.9014013,9.62058417 C71.6630878,10.738761 71.5700656,10.1216579 69.1665536,11.0988811 C65.801814,12.4611488 66.2917299,16.9725328 69.279066,16.9725328 L117.446759,16.9725328 Z" id="Path" fill="#47A831" fill-rule="nonzero"></path>
                    </g>
                    <g id="Group-4" transform="translate(44.050633, 27.433155)">
                        <path d="M14.0620254,9.67847671 C15.3797996,5.8873854 13.3965777,1.73725666 9.62695621,0.412306582 C5.85733499,-0.919240034 1.73062116,1.08137804 0.406286318,4.87246959 C-0.910550516,8.66356115 1.07923203,12.8136896 4.84885349,14.1386397 C8.61753753,15.4626477 12.7376905,13.468626 14.0620254,9.67847671 Z" id="Path" fill="#FF698F" fill-rule="nonzero"></path>
                        <g id="Oval" transform="translate(7.594937, 0.000000)">
                            <mask id="mask-8" fill="white">
                                <use xlink:href="#path-7"></use>
                            </mask>
                            <g id="Mask"></g>
                            <path d="M6.46708867,9.67847671 C7.78486293,5.8873854 5.80164096,1.73725666 2.0320195,0.412306582 C-1.73760172,-0.919240034 -5.86431555,1.08137804 -7.18865039,4.87246959 C-8.50548722,8.66356115 -6.51570468,12.8136896 -2.74608322,14.1386397 C1.02260082,15.4626477 5.14275383,13.468626 6.46708867,9.67847671 Z" id="Path" fill="#D85576" fill-rule="nonzero" mask="url(#mask-8)"></path>
                        </g>
                    </g>
                    <path d="M101.702008,48.7700535 C100.971651,48.7700535 100.238395,48.5187356 99.6476468,48.0074621 L52.4050052,7.11289491 L5.16277776,48.0074621 C3.87626466,49.12125 1.91283564,49.0009503 0.77732368,47.7386168 C-0.357981147,46.4762832 -0.235357455,44.5500663 1.05136278,43.4362784 L50.3494012,0.762414306 C51.5238545,-0.254239704 53.286363,-0.254036495 54.4606091,0.762414306 L103.758648,43.4362784 C105.045368,44.5500663 105.168199,46.4762832 104.032894,47.7386168 C103.418947,48.4211954 102.562445,48.7700535 101.702008,48.7700535 Z" id="Path" fill="#935C46" fill-rule="nonzero"></path>
                    <path d="M103.743684,43.4359909 L53.7440823,0.761865609 C53.1449274,0.250385735 52.3947233,-0.00322049482 51.6455696,0 L51.6455696,7.12437448 L51.659225,7.1127915 L99.5739692,48.007609 C100.173124,48.5190889 100.916816,48.7700535 101.657566,48.7700535 C102.530248,48.7700535 103.398939,48.4213448 104.021833,47.7385588 C105.173294,46.4760143 105.048716,44.5497856 103.743684,43.4359909 Z" id="Path" fill="#633A29" fill-rule="nonzero"></path>
                </g>
            </g>
        </g>
    </g>
</svg>